<?xml version="1.0" standalone="no"?>
<!DOCTYPE svg PUBLIC "-//W3C//DTD SVG 20010904//EN"
 "http://www.w3.org/TR/2001/REC-SVG-20010904/DTD/svg10.dtd">
<svg version="1.0" xmlns="http://www.w3.org/2000/svg"
 width="567.000000pt" height="119.000000pt" viewBox="0 0 567.000000 119.000000"
 preserveAspectRatio="xMidYMid meet">
<metadata>
Created by potrace 1.13, written by Peter Selinger 2001-2015
</metadata>
<g transform="translate(0.000000,119.000000) scale(0.100000,-0.100000)"
fill="#000000" stroke="none">
<path d="M490 1109 c-25 -5 -78 -25 -119 -45 -196 -97 -314 -325 -281 -543 20
-125 107 -264 216 -340 l49 -35 -56 55 c-186 181 -205 465 -44 638 184 197
494 173 602 -47 75 -154 -8 -349 -177 -413 -91 -34 -212 -21 -310 34 -34 20
-34 19 14 -30 26 -28 73 -63 105 -79 49 -25 67 -28 151 -29 86 0 101 3 162 32
166 78 259 253 229 430 -43 256 -284 422 -541 372z"/>
<path d="M1630 854 c-169 -73 -181 -318 -21 -412 38 -23 58 -27 116 -27 101 1
167 39 209 123 l17 32 -50 0 c-41 0 -51 -4 -65 -25 -25 -37 -72 -58 -122 -52
-56 6 -98 37 -119 89 -61 153 119 284 230 168 23 -24 37 -30 72 -30 48 0 49 0
29 38 -20 38 -65 78 -108 96 -47 20 -142 20 -188 0z"/>
<path d="M2020 645 l0 -225 45 0 45 0 0 225 0 225 -45 0 -45 0 0 -225z"/>
<path d="M2170 830 l0 -40 50 0 50 0 0 -185 0 -185 45 0 45 0 0 185 0 185 50
0 50 0 0 40 0 40 -145 0 -145 0 0 -40z"/>
<path d="M4630 852 c-31 -15 -80 -72 -80 -93 0 -5 20 -9 45 -9 25 0 45 4 45
10 0 5 11 17 24 25 19 13 29 14 45 5 47 -24 9 -100 -49 -100 -17 0 -30 -5 -30
-12 0 -7 -3 -23 -6 -35 -6 -21 -3 -23 28 -23 40 0 68 -25 68 -59 0 -30 -43
-71 -75 -71 -25 0 -65 31 -65 50 0 6 -20 10 -45 10 -39 0 -45 -3 -45 -21 0
-91 108 -145 208 -104 102 43 147 155 84 213 l-27 25 32 32 c28 28 33 40 33
79 0 66 -33 96 -104 96 -29 0 -66 -8 -86 -18z"/>
<path d="M5001 774 c-107 -124 -131 -165 -131 -230 0 -144 181 -182 287 -61
60 69 68 160 18 210 -27 27 -74 40 -102 30 -19 -8 27 56 67 92 12 11 26 28 31
37 9 16 4 18 -39 18 l-49 0 -82 -96z m95 -150 c32 -31 27 -67 -17 -107 -39
-36 -83 -34 -112 5 -19 26 -19 27 -1 64 32 65 88 81 130 38z"/>
<path d="M5326 757 c-21 -61 -41 -117 -43 -124 -3 -7 9 -16 29 -21 26 -7 37
-6 53 8 38 33 94 31 117 -4 17 -25 7 -68 -21 -97 -38 -37 -82 -39 -109 -4 -15
19 -29 25 -61 25 -34 0 -41 -3 -41 -20 0 -59 64 -110 137 -110 54 0 122 37
160 88 27 36 33 52 33 96 0 30 -6 61 -16 74 -32 45 -109 66 -156 41 -18 -10
-19 -8 -13 13 23 72 17 68 110 68 74 0 85 2 85 18 0 9 3 27 6 40 6 22 6 22
-112 22 l-119 0 -39 -113z"/>
</g>
</svg>
